<mxfile host="app.diagrams.net" modified="2023-03-05T19:13:10.204Z" agent="5.0 (Macintosh; Intel Mac OS X 10_15_7) AppleWebKit/537.36 (KHTML, like Gecko) Chrome/113.0.0.0 Safari/537.36" etag="9fcOsEBoclWEO3kxwnvI" version="21.0.2" type="github">
  <diagram name="Page-1" id="awNu_3DlOISEKZ05TdpL">
    <mxGraphModel dx="2840" dy="1233" grid="1" gridSize="10" guides="1" tooltips="1" connect="1" arrows="1" fold="1" page="1" pageScale="1" pageWidth="850" pageHeight="1100" math="0" shadow="0">
      <root>
        <mxCell id="0" />
        <mxCell id="1" parent="0" />
        <mxCell id="PiR5OucPSFYAvCVdW0ws-32" style="edgeStyle=none;rounded=0;jumpStyle=line;orthogonalLoop=1;jettySize=auto;html=1;entryX=0;entryY=0.25;entryDx=0;entryDy=0;shadow=0;strokeColor=#000000;strokeWidth=1;fontFamily=Comic Sans MS;fontSize=14;fontColor=#FF9933;startArrow=oval;startFill=1;endArrow=open;endFill=0;shape=link;sketch=1;curveFitting=1;jiggle=2;" parent="1" source="tLa2hY0cK8lAH2d8xIMi-1" target="tLa2hY0cK8lAH2d8xIMi-18" edge="1">
          <mxGeometry relative="1" as="geometry" />
        </mxCell>
        <mxCell id="uR7NVUKfqcJEjUwaw1Go-4" value="" style="rounded=0;orthogonalLoop=1;jettySize=auto;html=1;sketch=1;curveFitting=1;jiggle=2;strokeColor=#3399FF;endArrow=open;endFill=0;startArrow=oval;startFill=1;strokeWidth=3;" edge="1" parent="1" source="tLa2hY0cK8lAH2d8xIMi-1" target="uR7NVUKfqcJEjUwaw1Go-2">
          <mxGeometry relative="1" as="geometry" />
        </mxCell>
        <mxCell id="tLa2hY0cK8lAH2d8xIMi-1" value="&lt;b&gt;&lt;font face=&quot;Comic Sans MS&quot;&gt;html&lt;/font&gt;&lt;/b&gt;" style="rounded=0;whiteSpace=wrap;html=1;fillColor=#f8cecc;strokeColor=#b85450;glass=0;shadow=0;sketch=1;curveFitting=1;jiggle=2;" parent="1" vertex="1">
          <mxGeometry x="-160" y="250" width="360" height="60" as="geometry" />
        </mxCell>
        <mxCell id="tLa2hY0cK8lAH2d8xIMi-21" value="" style="edgeStyle=none;rounded=0;orthogonalLoop=1;jettySize=auto;html=1;shape=link;sketch=1;curveFitting=1;jiggle=2;opacity=30;textOpacity=30;" parent="1" source="tLa2hY0cK8lAH2d8xIMi-16" target="tLa2hY0cK8lAH2d8xIMi-20" edge="1">
          <mxGeometry relative="1" as="geometry" />
        </mxCell>
        <mxCell id="tLa2hY0cK8lAH2d8xIMi-23" value="" style="edgeStyle=none;rounded=0;orthogonalLoop=1;jettySize=auto;html=1;shape=link;sketch=1;curveFitting=1;jiggle=2;opacity=30;textOpacity=30;" parent="1" source="tLa2hY0cK8lAH2d8xIMi-16" target="tLa2hY0cK8lAH2d8xIMi-22" edge="1">
          <mxGeometry relative="1" as="geometry" />
        </mxCell>
        <mxCell id="PiR5OucPSFYAvCVdW0ws-16" value="" style="edgeStyle=none;shape=link;rounded=0;orthogonalLoop=1;jettySize=auto;html=1;sketch=1;curveFitting=1;jiggle=2;opacity=30;textOpacity=30;" parent="1" source="tLa2hY0cK8lAH2d8xIMi-16" target="PiR5OucPSFYAvCVdW0ws-15" edge="1">
          <mxGeometry relative="1" as="geometry" />
        </mxCell>
        <mxCell id="tLa2hY0cK8lAH2d8xIMi-16" value="&lt;b style=&quot;border-color: var(--border-color);&quot;&gt;&lt;font color=&quot;#000000&quot; face=&quot;Comic Sans MS&quot;&gt;head&lt;/font&gt;&lt;/b&gt;" style="rounded=0;whiteSpace=wrap;html=1;fillColor=#ffe6cc;strokeColor=#d79b00;sketch=1;curveFitting=1;jiggle=2;opacity=30;textOpacity=30;" parent="1" vertex="1">
          <mxGeometry x="-340" y="360" width="120" height="60" as="geometry" />
        </mxCell>
        <mxCell id="tLa2hY0cK8lAH2d8xIMi-26" value="" style="edgeStyle=none;rounded=0;orthogonalLoop=1;jettySize=auto;html=1;shape=link;sketch=1;curveFitting=1;jiggle=2;" parent="1" source="tLa2hY0cK8lAH2d8xIMi-18" target="tLa2hY0cK8lAH2d8xIMi-25" edge="1">
          <mxGeometry relative="1" as="geometry" />
        </mxCell>
        <mxCell id="uR7NVUKfqcJEjUwaw1Go-9" value="" style="rounded=0;orthogonalLoop=1;jettySize=auto;html=1;startArrow=oval;startFill=1;sketch=1;curveFitting=1;jiggle=2;strokeWidth=3;strokeColor=#3399FF;endArrow=open;endFill=0;" edge="1" parent="1" source="tLa2hY0cK8lAH2d8xIMi-18" target="uR7NVUKfqcJEjUwaw1Go-5">
          <mxGeometry relative="1" as="geometry" />
        </mxCell>
        <mxCell id="tLa2hY0cK8lAH2d8xIMi-18" value="&lt;b&gt;&lt;font face=&quot;Comic Sans MS&quot; color=&quot;#000000&quot;&gt;body&lt;/font&gt;&lt;/b&gt;" style="rounded=0;whiteSpace=wrap;html=1;fillColor=#ffe6cc;strokeColor=#d79b00;sketch=1;curveFitting=1;jiggle=2;gradientColor=none;" parent="1" vertex="1">
          <mxGeometry x="310" y="370" width="120" height="60" as="geometry" />
        </mxCell>
        <mxCell id="PiR5OucPSFYAvCVdW0ws-38" style="edgeStyle=none;rounded=0;sketch=1;jumpStyle=line;orthogonalLoop=1;jettySize=auto;html=1;entryX=0.567;entryY=0.017;entryDx=0;entryDy=0;entryPerimeter=0;shadow=0;strokeColor=#000000;strokeWidth=1;fontFamily=Comic Sans MS;fontSize=14;fontColor=#FF9933;startArrow=none;startFill=0;endArrow=classic;endFill=1;dashed=1;opacity=30;textOpacity=30;" parent="1" source="tLa2hY0cK8lAH2d8xIMi-20" target="PiR5OucPSFYAvCVdW0ws-37" edge="1">
          <mxGeometry relative="1" as="geometry" />
        </mxCell>
        <mxCell id="tLa2hY0cK8lAH2d8xIMi-20" value="&lt;b style=&quot;border-color: var(--border-color);&quot;&gt;&lt;font face=&quot;Comic Sans MS&quot; color=&quot;#000000&quot;&gt;link&lt;/font&gt;&lt;/b&gt;" style="rounded=0;whiteSpace=wrap;html=1;fillColor=#d5e8d4;strokeColor=#82b366;sketch=1;curveFitting=1;jiggle=2;opacity=30;textOpacity=30;" parent="1" vertex="1">
          <mxGeometry x="-210" y="540" width="120" height="60" as="geometry" />
        </mxCell>
        <mxCell id="tLa2hY0cK8lAH2d8xIMi-22" value="&lt;b style=&quot;border-color: var(--border-color);&quot;&gt;&lt;font face=&quot;Comic Sans MS&quot; color=&quot;#000000&quot;&gt;meta&lt;/font&gt;&lt;/b&gt;" style="rounded=0;whiteSpace=wrap;html=1;fillColor=#d5e8d4;strokeColor=#82b366;sketch=1;curveFitting=1;jiggle=2;opacity=30;textOpacity=30;" parent="1" vertex="1">
          <mxGeometry x="-650" y="530" width="120" height="60" as="geometry" />
        </mxCell>
        <mxCell id="tLa2hY0cK8lAH2d8xIMi-30" value="" style="edgeStyle=none;orthogonalLoop=1;jettySize=auto;html=1;curved=1;shape=link;sketch=1;curveFitting=1;jiggle=2;" parent="1" source="tLa2hY0cK8lAH2d8xIMi-25" target="tLa2hY0cK8lAH2d8xIMi-29" edge="1">
          <mxGeometry relative="1" as="geometry" />
        </mxCell>
        <mxCell id="PiR5OucPSFYAvCVdW0ws-28" value="" style="edgeStyle=none;rounded=0;orthogonalLoop=1;jettySize=auto;html=1;fontFamily=Comic Sans MS;fontSize=14;fontColor=#FF9933;strokeColor=#000000;sketch=1;curveFitting=1;jiggle=2;" parent="1" source="tLa2hY0cK8lAH2d8xIMi-25" target="PiR5OucPSFYAvCVdW0ws-18" edge="1">
          <mxGeometry relative="1" as="geometry" />
        </mxCell>
        <mxCell id="uR7NVUKfqcJEjUwaw1Go-13" value="" style="rounded=0;orthogonalLoop=1;jettySize=auto;html=1;startArrow=oval;startFill=1;sketch=1;curveFitting=1;jiggle=2;strokeWidth=3;strokeColor=#3399FF;endArrow=open;endFill=0;" edge="1" parent="1" source="tLa2hY0cK8lAH2d8xIMi-25" target="uR7NVUKfqcJEjUwaw1Go-12">
          <mxGeometry relative="1" as="geometry" />
        </mxCell>
        <mxCell id="tLa2hY0cK8lAH2d8xIMi-25" value="&lt;b&gt;&lt;font face=&quot;Comic Sans MS&quot; color=&quot;#000000&quot;&gt;p&lt;/font&gt;&lt;/b&gt;" style="rounded=0;whiteSpace=wrap;html=1;fillColor=#d5e8d4;strokeColor=#82b366;sketch=1;curveFitting=1;jiggle=2;" parent="1" vertex="1">
          <mxGeometry x="40" y="590" width="120" height="60" as="geometry" />
        </mxCell>
        <mxCell id="PiR5OucPSFYAvCVdW0ws-40" value="" style="edgeStyle=none;rounded=0;sketch=1;jumpStyle=line;orthogonalLoop=1;jettySize=auto;html=1;shadow=0;dashed=1;strokeColor=#000000;strokeWidth=1;fontFamily=Comic Sans MS;fontSize=14;fontColor=#000000;startArrow=none;startFill=0;endArrow=classic;endFill=1;entryX=0.294;entryY=-0.017;entryDx=0;entryDy=0;entryPerimeter=0;opacity=30;textOpacity=30;" parent="1" source="tLa2hY0cK8lAH2d8xIMi-27" target="PiR5OucPSFYAvCVdW0ws-39" edge="1">
          <mxGeometry relative="1" as="geometry" />
        </mxCell>
        <mxCell id="uR7NVUKfqcJEjUwaw1Go-11" value="" style="rounded=0;orthogonalLoop=1;jettySize=auto;html=1;startArrow=oval;startFill=1;sketch=1;curveFitting=1;jiggle=2;strokeWidth=3;strokeColor=#3399FF;endArrow=open;endFill=0;opacity=30;textOpacity=30;" edge="1" parent="1" source="tLa2hY0cK8lAH2d8xIMi-27" target="uR7NVUKfqcJEjUwaw1Go-10">
          <mxGeometry relative="1" as="geometry" />
        </mxCell>
        <mxCell id="tLa2hY0cK8lAH2d8xIMi-27" value="&lt;b style=&quot;&quot;&gt;&lt;font face=&quot;Comic Sans MS&quot; color=&quot;#000000&quot;&gt;div&lt;/font&gt;&lt;/b&gt;" style="rounded=0;whiteSpace=wrap;html=1;sketch=1;curveFitting=1;jiggle=2;fillColor=#d5e8d4;strokeColor=#82b366;opacity=30;textOpacity=30;" parent="1" vertex="1">
          <mxGeometry x="370" y="582.5" width="120" height="60" as="geometry" />
        </mxCell>
        <mxCell id="PiR5OucPSFYAvCVdW0ws-20" value="" style="rounded=0;orthogonalLoop=1;jettySize=auto;html=1;fontSize=14;sketch=1;curveFitting=1;jiggle=2;" parent="1" source="tLa2hY0cK8lAH2d8xIMi-29" target="PiR5OucPSFYAvCVdW0ws-19" edge="1">
          <mxGeometry relative="1" as="geometry" />
        </mxCell>
        <mxCell id="uR7NVUKfqcJEjUwaw1Go-15" value="" style="rounded=0;orthogonalLoop=1;jettySize=auto;html=1;startArrow=oval;startFill=1;sketch=1;curveFitting=1;jiggle=2;strokeWidth=3;strokeColor=#3399FF;endArrow=open;endFill=0;" edge="1" parent="1" source="tLa2hY0cK8lAH2d8xIMi-29" target="uR7NVUKfqcJEjUwaw1Go-14">
          <mxGeometry relative="1" as="geometry" />
        </mxCell>
        <mxCell id="tLa2hY0cK8lAH2d8xIMi-29" value="&lt;b&gt;&lt;font face=&quot;Comic Sans MS&quot; color=&quot;#000000&quot;&gt;span&lt;/font&gt;&lt;br&gt;&lt;/b&gt;" style="rounded=0;whiteSpace=wrap;html=1;fillColor=#e1d5e7;strokeColor=#9673a6;sketch=1;curveFitting=1;jiggle=2;" parent="1" vertex="1">
          <mxGeometry x="-110" y="750" width="120" height="60" as="geometry" />
        </mxCell>
        <mxCell id="PiR5OucPSFYAvCVdW0ws-36" style="edgeStyle=none;rounded=0;sketch=1;jumpStyle=line;orthogonalLoop=1;jettySize=auto;html=1;shadow=0;strokeColor=#000000;strokeWidth=1;fontFamily=Comic Sans MS;fontSize=14;fontColor=#000000;startArrow=none;startFill=0;endArrow=classic;endFill=1;opacity=30;textOpacity=30;" parent="1" source="PiR5OucPSFYAvCVdW0ws-15" target="PiR5OucPSFYAvCVdW0ws-35" edge="1">
          <mxGeometry relative="1" as="geometry" />
        </mxCell>
        <mxCell id="PiR5OucPSFYAvCVdW0ws-15" value="&lt;b style=&quot;border-color: var(--border-color);&quot;&gt;&lt;font face=&quot;Comic Sans MS&quot; color=&quot;#000000&quot;&gt;title&lt;/font&gt;&lt;/b&gt;" style="rounded=0;whiteSpace=wrap;html=1;fillColor=#d5e8d4;strokeColor=#82b366;sketch=1;curveFitting=1;jiggle=2;opacity=30;textOpacity=30;" parent="1" vertex="1">
          <mxGeometry x="-425" y="570" width="120" height="60" as="geometry" />
        </mxCell>
        <mxCell id="PiR5OucPSFYAvCVdW0ws-18" value="&lt;b&gt;&lt;font face=&quot;Comic Sans MS&quot; style=&quot;font-size: 14px;&quot;&gt;&lt;font color=&quot;#ff9933&quot;&gt;textContent&lt;/font&gt;: Hello&lt;/font&gt;&lt;/b&gt;" style="text;strokeColor=none;fillColor=none;align=left;verticalAlign=middle;spacingLeft=4;spacingRight=4;overflow=hidden;points=[[0,0.5],[1,0.5]];portConstraint=eastwest;rotatable=0;whiteSpace=wrap;html=1;" parent="1" vertex="1">
          <mxGeometry x="210" y="587.5" width="140" height="65" as="geometry" />
        </mxCell>
        <mxCell id="PiR5OucPSFYAvCVdW0ws-19" value="&lt;b style=&quot;--tw-border-spacing-x: 0; --tw-border-spacing-y: 0; --tw-translate-x: 0; --tw-translate-y: 0; --tw-rotate: 0; --tw-skew-x: 0; --tw-skew-y: 0; --tw-scale-x: 1; --tw-scale-y: 1; --tw-pan-x: ; --tw-pan-y: ; --tw-pinch-zoom: ; --tw-scroll-snap-strictness: proximity; --tw-ordinal: ; --tw-slashed-zero: ; --tw-numeric-figure: ; --tw-numeric-spacing: ; --tw-numeric-fraction: ; --tw-ring-inset: ; --tw-ring-offset-width: 0px; --tw-ring-offset-color: #fff; --tw-ring-color: rgb(59 130 246 / 0.5); --tw-ring-offset-shadow: 0 0 #0000; --tw-ring-shadow: 0 0 #0000; --tw-shadow: 0 0 #0000; --tw-shadow-colored: 0 0 #0000; --tw-blur: ; --tw-brightness: ; --tw-contrast: ; --tw-grayscale: ; --tw-hue-rotate: ; --tw-invert: ; --tw-saturate: ; --tw-sepia: ; --tw-drop-shadow: ; --tw-backdrop-blur: ; --tw-backdrop-brightness: ; --tw-backdrop-contrast: ; --tw-backdrop-grayscale: ; --tw-backdrop-hue-rotate: ; --tw-backdrop-invert: ; --tw-backdrop-opacity: ; --tw-backdrop-saturate: ; --tw-backdrop-sepia: ; border-color: var(--border-color); font-size: 12px; text-align: left;&quot;&gt;&lt;font style=&quot;--tw-border-spacing-x: 0; --tw-border-spacing-y: 0; --tw-translate-x: 0; --tw-translate-y: 0; --tw-rotate: 0; --tw-skew-x: 0; --tw-skew-y: 0; --tw-scale-x: 1; --tw-scale-y: 1; --tw-pan-x: ; --tw-pan-y: ; --tw-pinch-zoom: ; --tw-scroll-snap-strictness: proximity; --tw-ordinal: ; --tw-slashed-zero: ; --tw-numeric-figure: ; --tw-numeric-spacing: ; --tw-numeric-fraction: ; --tw-ring-inset: ; --tw-ring-offset-width: 0px; --tw-ring-offset-color: #fff; --tw-ring-color: rgb(59 130 246 / 0.5); --tw-ring-offset-shadow: 0 0 #0000; --tw-ring-shadow: 0 0 #0000; --tw-shadow: 0 0 #0000; --tw-shadow-colored: 0 0 #0000; --tw-blur: ; --tw-brightness: ; --tw-contrast: ; --tw-grayscale: ; --tw-hue-rotate: ; --tw-invert: ; --tw-saturate: ; --tw-sepia: ; --tw-drop-shadow: ; --tw-backdrop-blur: ; --tw-backdrop-brightness: ; --tw-backdrop-contrast: ; --tw-backdrop-grayscale: ; --tw-backdrop-hue-rotate: ; --tw-backdrop-invert: ; --tw-backdrop-opacity: ; --tw-backdrop-saturate: ; --tw-backdrop-sepia: ; border-color: var(--border-color); font-size: 14px;&quot;&gt;&lt;font face=&quot;Comic Sans MS&quot;&gt;&lt;font style=&quot;--tw-border-spacing-x: 0; --tw-border-spacing-y: 0; --tw-translate-x: 0; --tw-translate-y: 0; --tw-rotate: 0; --tw-skew-x: 0; --tw-skew-y: 0; --tw-scale-x: 1; --tw-scale-y: 1; --tw-pan-x: ; --tw-pan-y: ; --tw-pinch-zoom: ; --tw-scroll-snap-strictness: proximity; --tw-ordinal: ; --tw-slashed-zero: ; --tw-numeric-figure: ; --tw-numeric-spacing: ; --tw-numeric-fraction: ; --tw-ring-inset: ; --tw-ring-offset-width: 0px; --tw-ring-offset-color: #fff; --tw-ring-color: rgb(59 130 246 / 0.5); --tw-ring-offset-shadow: 0 0 #0000; --tw-ring-shadow: 0 0 #0000; --tw-shadow: 0 0 #0000; --tw-shadow-colored: 0 0 #0000; --tw-blur: ; --tw-brightness: ; --tw-contrast: ; --tw-grayscale: ; --tw-hue-rotate: ; --tw-invert: ; --tw-saturate: ; --tw-sepia: ; --tw-drop-shadow: ; --tw-backdrop-blur: ; --tw-backdrop-brightness: ; --tw-backdrop-contrast: ; --tw-backdrop-grayscale: ; --tw-backdrop-hue-rotate: ; --tw-backdrop-invert: ; --tw-backdrop-opacity: ; --tw-backdrop-saturate: ; --tw-backdrop-sepia: ; border-color: var(--border-color);&quot; color=&quot;#ff9933&quot;&gt;textContent&lt;/font&gt;:&amp;nbsp;&lt;b style=&quot;text-align: justify; background-color: initial; --tw-border-spacing-x: 0; --tw-border-spacing-y: 0; --tw-translate-x: 0; --tw-translate-y: 0; --tw-rotate: 0; --tw-skew-x: 0; --tw-skew-y: 0; --tw-scale-x: 1; --tw-scale-y: 1; --tw-pan-x: ; --tw-pan-y: ; --tw-pinch-zoom: ; --tw-scroll-snap-strictness: proximity; --tw-ordinal: ; --tw-slashed-zero: ; --tw-numeric-figure: ; --tw-numeric-spacing: ; --tw-numeric-fraction: ; --tw-ring-inset: ; --tw-ring-offset-width: 0px; --tw-ring-offset-color: #fff; --tw-ring-color: rgb(59 130 246 / 0.5); --tw-ring-offset-shadow: 0 0 #0000; --tw-ring-shadow: 0 0 #0000; --tw-shadow: 0 0 #0000; --tw-shadow-colored: 0 0 #0000; --tw-blur: ; --tw-brightness: ; --tw-contrast: ; --tw-grayscale: ; --tw-hue-rotate: ; --tw-invert: ; --tw-saturate: ; --tw-sepia: ; --tw-drop-shadow: ; --tw-backdrop-blur: ; --tw-backdrop-brightness: ; --tw-backdrop-contrast: ; --tw-backdrop-grayscale: ; --tw-backdrop-hue-rotate: ; --tw-backdrop-invert: ; --tw-backdrop-opacity: ; --tw-backdrop-saturate: ; --tw-backdrop-sepia: ; border-color: var(--border-color); font-size: 12px;&quot;&gt;&lt;font style=&quot;--tw-border-spacing-x: 0; --tw-border-spacing-y: 0; --tw-translate-x: 0; --tw-translate-y: 0; --tw-rotate: 0; --tw-skew-x: 0; --tw-skew-y: 0; --tw-scale-x: 1; --tw-scale-y: 1; --tw-pan-x: ; --tw-pan-y: ; --tw-pinch-zoom: ; --tw-scroll-snap-strictness: proximity; --tw-ordinal: ; --tw-slashed-zero: ; --tw-numeric-figure: ; --tw-numeric-spacing: ; --tw-numeric-fraction: ; --tw-ring-inset: ; --tw-ring-offset-width: 0px; --tw-ring-offset-color: #fff; --tw-ring-color: rgb(59 130 246 / 0.5); --tw-ring-offset-shadow: 0 0 #0000; --tw-ring-shadow: 0 0 #0000; --tw-shadow: 0 0 #0000; --tw-shadow-colored: 0 0 #0000; --tw-blur: ; --tw-brightness: ; --tw-contrast: ; --tw-grayscale: ; --tw-hue-rotate: ; --tw-invert: ; --tw-saturate: ; --tw-sepia: ; --tw-drop-shadow: ; --tw-backdrop-blur: ; --tw-backdrop-brightness: ; --tw-backdrop-contrast: ; --tw-backdrop-grayscale: ; --tw-backdrop-hue-rotate: ; --tw-backdrop-invert: ; --tw-backdrop-opacity: ; --tw-backdrop-saturate: ; --tw-backdrop-sepia: ; border-color: var(--border-color); font-size: 14px;&quot;&gt;World&lt;/font&gt;&lt;/b&gt;&lt;/font&gt;&lt;br&gt;&lt;/font&gt;&lt;/b&gt;" style="text;whiteSpace=wrap;html=1;fontSize=14;align=center;" parent="1" vertex="1">
          <mxGeometry x="70" y="765" width="160" height="30" as="geometry" />
        </mxCell>
        <mxCell id="PiR5OucPSFYAvCVdW0ws-35" value="&lt;b&gt;textContent: &lt;font color=&quot;#000000&quot;&gt;XYZ&lt;/font&gt;&lt;/b&gt;" style="text;strokeColor=none;fillColor=none;align=left;verticalAlign=middle;spacingLeft=4;spacingRight=4;overflow=hidden;points=[[0,0.5],[1,0.5]];portConstraint=eastwest;rotatable=0;whiteSpace=wrap;html=1;fontSize=14;fontFamily=Comic Sans MS;fontColor=#FF9933;opacity=30;textOpacity=30;" parent="1" vertex="1">
          <mxGeometry x="-560" y="660" width="145" height="30" as="geometry" />
        </mxCell>
        <mxCell id="PiR5OucPSFYAvCVdW0ws-37" value="&lt;b&gt;&lt;font color=&quot;#ff9933&quot;&gt;href:&lt;/font&gt; styles.css&lt;/b&gt;" style="text;strokeColor=none;fillColor=none;align=left;verticalAlign=middle;spacingLeft=4;spacingRight=4;overflow=hidden;points=[[0,0.5],[1,0.5]];portConstraint=eastwest;rotatable=0;whiteSpace=wrap;html=1;fontSize=14;fontFamily=Comic Sans MS;fontColor=#000000;opacity=30;textOpacity=30;" parent="1" vertex="1">
          <mxGeometry x="-170" y="645" width="120" height="30" as="geometry" />
        </mxCell>
        <mxCell id="PiR5OucPSFYAvCVdW0ws-39" value="&lt;b&gt;textContent:&lt;font color=&quot;#000000&quot;&gt;&amp;nbsp;xyz&lt;/font&gt;&lt;/b&gt;" style="text;strokeColor=none;fillColor=none;align=left;verticalAlign=middle;spacingLeft=4;spacingRight=4;overflow=hidden;points=[[0,0.5],[1,0.5]];portConstraint=eastwest;rotatable=0;whiteSpace=wrap;html=1;fontSize=14;fontFamily=Comic Sans MS;fontColor=#FF9933;shadow=0;opacity=30;textOpacity=30;" parent="1" vertex="1">
          <mxGeometry x="410" y="700" width="140" height="30" as="geometry" />
        </mxCell>
        <mxCell id="ZyQKd3UjBC-e0zp0OzDi-8" value="" style="edgeStyle=none;rounded=0;sketch=1;jumpStyle=line;orthogonalLoop=1;jettySize=auto;html=1;shadow=0;dashed=1;strokeColor=#000000;strokeWidth=1;fontFamily=Comic Sans MS;fontSize=14;fontColor=#000000;startArrow=none;startFill=0;endArrow=classic;endFill=1;entryX=0.294;entryY=-0.017;entryDx=0;entryDy=0;entryPerimeter=0;textOpacity=30;opacity=30;" parent="1" source="ZyQKd3UjBC-e0zp0OzDi-9" target="ZyQKd3UjBC-e0zp0OzDi-11" edge="1">
          <mxGeometry relative="1" as="geometry" />
        </mxCell>
        <mxCell id="ZyQKd3UjBC-e0zp0OzDi-9" value="&lt;b style=&quot;&quot;&gt;&lt;font face=&quot;Comic Sans MS&quot; color=&quot;#000000&quot;&gt;script&lt;/font&gt;&lt;/b&gt;" style="rounded=0;whiteSpace=wrap;html=1;sketch=1;curveFitting=1;jiggle=2;fillColor=#fff2cc;strokeColor=#d6b656;textOpacity=30;opacity=30;" parent="1" vertex="1">
          <mxGeometry x="540" y="430" width="120" height="60" as="geometry" />
        </mxCell>
        <mxCell id="ZyQKd3UjBC-e0zp0OzDi-11" value="&lt;b&gt;src: &lt;font color=&quot;#000000&quot;&gt;script.js&lt;/font&gt;&lt;/b&gt;" style="text;strokeColor=none;fillColor=none;align=left;verticalAlign=middle;spacingLeft=4;spacingRight=4;overflow=hidden;points=[[0,0.5],[1,0.5]];portConstraint=eastwest;rotatable=0;whiteSpace=wrap;html=1;fontSize=14;fontFamily=Comic Sans MS;fontColor=#FF9933;shadow=0;textOpacity=30;opacity=30;" parent="1" vertex="1">
          <mxGeometry x="660" y="505" width="130" height="35" as="geometry" />
        </mxCell>
        <mxCell id="uR7NVUKfqcJEjUwaw1Go-2" value="&lt;font face=&quot;Comic Sans MS&quot;&gt;font-size: 62.5%;&lt;br&gt;&lt;/font&gt;" style="whiteSpace=wrap;html=1;fillStyle=auto;dashed=1;" vertex="1" parent="1">
          <mxGeometry x="305" y="200" width="120" height="120" as="geometry" />
        </mxCell>
        <mxCell id="uR7NVUKfqcJEjUwaw1Go-5" value="&lt;font face=&quot;Comic Sans MS&quot;&gt;font-size: 1.4rem;&lt;br&gt;width: 100%;&lt;br&gt;&lt;/font&gt;" style="whiteSpace=wrap;html=1;fillStyle=auto;dashed=1;" vertex="1" parent="1">
          <mxGeometry x="510" y="300" width="120" height="120" as="geometry" />
        </mxCell>
        <mxCell id="uR7NVUKfqcJEjUwaw1Go-10" value="&lt;font color=&quot;#999999&quot;&gt;font-size: 1.4rem;&lt;br style=&quot;border-color: var(--border-color);&quot;&gt;width: 100%;&lt;/font&gt;&lt;span style=&quot;&quot;&gt;&lt;br&gt;&lt;/span&gt;" style="whiteSpace=wrap;html=1;fillStyle=auto;shadow=0;dashed=1;fontFamily=Comic Sans MS;opacity=30;textOpacity=30;" vertex="1" parent="1">
          <mxGeometry x="540" y="560" width="120" height="120" as="geometry" />
        </mxCell>
        <mxCell id="uR7NVUKfqcJEjUwaw1Go-12" value="&lt;font style=&quot;--tw-border-spacing-x: 0; --tw-border-spacing-y: 0; --tw-translate-x: 0; --tw-translate-y: 0; --tw-rotate: 0; --tw-skew-x: 0; --tw-skew-y: 0; --tw-scale-x: 1; --tw-scale-y: 1; --tw-pan-x: ; --tw-pan-y: ; --tw-pinch-zoom: ; --tw-scroll-snap-strictness: proximity; --tw-ordinal: ; --tw-slashed-zero: ; --tw-numeric-figure: ; --tw-numeric-spacing: ; --tw-numeric-fraction: ; --tw-ring-inset: ; --tw-ring-offset-width: 0px; --tw-ring-offset-color: #fff; --tw-ring-color: rgb(59 130 246 / 0.5); --tw-ring-offset-shadow: 0 0 #0000; --tw-ring-shadow: 0 0 #0000; --tw-shadow: 0 0 #0000; --tw-shadow-colored: 0 0 #0000; --tw-blur: ; --tw-brightness: ; --tw-contrast: ; --tw-grayscale: ; --tw-hue-rotate: ; --tw-invert: ; --tw-saturate: ; --tw-sepia: ; --tw-drop-shadow: ; --tw-backdrop-blur: ; --tw-backdrop-brightness: ; --tw-backdrop-contrast: ; --tw-backdrop-grayscale: ; --tw-backdrop-hue-rotate: ; --tw-backdrop-invert: ; --tw-backdrop-opacity: ; --tw-backdrop-saturate: ; --tw-backdrop-sepia: ; border-color: var(--border-color); font-family: &amp;quot;Comic Sans MS&amp;quot;;&quot;&gt;&lt;font style=&quot;--tw-border-spacing-x: 0; --tw-border-spacing-y: 0; --tw-translate-x: 0; --tw-translate-y: 0; --tw-rotate: 0; --tw-skew-x: 0; --tw-skew-y: 0; --tw-scale-x: 1; --tw-scale-y: 1; --tw-pan-x: ; --tw-pan-y: ; --tw-pinch-zoom: ; --tw-scroll-snap-strictness: proximity; --tw-ordinal: ; --tw-slashed-zero: ; --tw-numeric-figure: ; --tw-numeric-spacing: ; --tw-numeric-fraction: ; --tw-ring-inset: ; --tw-ring-offset-width: 0px; --tw-ring-offset-color: #fff; --tw-ring-color: rgb(59 130 246 / 0.5); --tw-ring-offset-shadow: 0 0 #0000; --tw-ring-shadow: 0 0 #0000; --tw-shadow: 0 0 #0000; --tw-shadow-colored: 0 0 #0000; --tw-blur: ; --tw-brightness: ; --tw-contrast: ; --tw-grayscale: ; --tw-hue-rotate: ; --tw-invert: ; --tw-saturate: ; --tw-sepia: ; --tw-drop-shadow: ; --tw-backdrop-blur: ; --tw-backdrop-brightness: ; --tw-backdrop-contrast: ; --tw-backdrop-grayscale: ; --tw-backdrop-hue-rotate: ; --tw-backdrop-invert: ; --tw-backdrop-opacity: ; --tw-backdrop-saturate: ; --tw-backdrop-sepia: ; border-color: var(--border-color);&quot; color=&quot;#999999&quot;&gt;font-size: 1.4rem;&lt;br&gt;&lt;/font&gt;&lt;/font&gt;width: 50%;&lt;font style=&quot;--tw-border-spacing-x: 0; --tw-border-spacing-y: 0; --tw-translate-x: 0; --tw-translate-y: 0; --tw-rotate: 0; --tw-skew-x: 0; --tw-skew-y: 0; --tw-scale-x: 1; --tw-scale-y: 1; --tw-pan-x: ; --tw-pan-y: ; --tw-pinch-zoom: ; --tw-scroll-snap-strictness: proximity; --tw-ordinal: ; --tw-slashed-zero: ; --tw-numeric-figure: ; --tw-numeric-spacing: ; --tw-numeric-fraction: ; --tw-ring-inset: ; --tw-ring-offset-width: 0px; --tw-ring-offset-color: #fff; --tw-ring-color: rgb(59 130 246 / 0.5); --tw-ring-offset-shadow: 0 0 #0000; --tw-ring-shadow: 0 0 #0000; --tw-shadow: 0 0 #0000; --tw-shadow-colored: 0 0 #0000; --tw-blur: ; --tw-brightness: ; --tw-contrast: ; --tw-grayscale: ; --tw-hue-rotate: ; --tw-invert: ; --tw-saturate: ; --tw-sepia: ; --tw-drop-shadow: ; --tw-backdrop-blur: ; --tw-backdrop-brightness: ; --tw-backdrop-contrast: ; --tw-backdrop-grayscale: ; --tw-backdrop-hue-rotate: ; --tw-backdrop-invert: ; --tw-backdrop-opacity: ; --tw-backdrop-saturate: ; --tw-backdrop-sepia: ; border-color: var(--border-color); font-family: &amp;quot;Comic Sans MS&amp;quot;;&quot;&gt;&lt;font style=&quot;--tw-border-spacing-x: 0; --tw-border-spacing-y: 0; --tw-translate-x: 0; --tw-translate-y: 0; --tw-rotate: 0; --tw-skew-x: 0; --tw-skew-y: 0; --tw-scale-x: 1; --tw-scale-y: 1; --tw-pan-x: ; --tw-pan-y: ; --tw-pinch-zoom: ; --tw-scroll-snap-strictness: proximity; --tw-ordinal: ; --tw-slashed-zero: ; --tw-numeric-figure: ; --tw-numeric-spacing: ; --tw-numeric-fraction: ; --tw-ring-inset: ; --tw-ring-offset-width: 0px; --tw-ring-offset-color: #fff; --tw-ring-color: rgb(59 130 246 / 0.5); --tw-ring-offset-shadow: 0 0 #0000; --tw-ring-shadow: 0 0 #0000; --tw-shadow: 0 0 #0000; --tw-shadow-colored: 0 0 #0000; --tw-blur: ; --tw-brightness: ; --tw-contrast: ; --tw-grayscale: ; --tw-hue-rotate: ; --tw-invert: ; --tw-saturate: ; --tw-sepia: ; --tw-drop-shadow: ; --tw-backdrop-blur: ; --tw-backdrop-brightness: ; --tw-backdrop-contrast: ; --tw-backdrop-grayscale: ; --tw-backdrop-hue-rotate: ; --tw-backdrop-invert: ; --tw-backdrop-opacity: ; --tw-backdrop-saturate: ; --tw-backdrop-sepia: ; border-color: var(--border-color);&quot; color=&quot;#999999&quot;&gt;&lt;br style=&quot;--tw-border-spacing-x: 0; --tw-border-spacing-y: 0; --tw-translate-x: 0; --tw-translate-y: 0; --tw-rotate: 0; --tw-skew-x: 0; --tw-skew-y: 0; --tw-scale-x: 1; --tw-scale-y: 1; --tw-pan-x: ; --tw-pan-y: ; --tw-pinch-zoom: ; --tw-scroll-snap-strictness: proximity; --tw-ordinal: ; --tw-slashed-zero: ; --tw-numeric-figure: ; --tw-numeric-spacing: ; --tw-numeric-fraction: ; --tw-ring-inset: ; --tw-ring-offset-width: 0px; --tw-ring-offset-color: #fff; --tw-ring-color: rgb(59 130 246 / 0.5); --tw-ring-offset-shadow: 0 0 #0000; --tw-ring-shadow: 0 0 #0000; --tw-shadow: 0 0 #0000; --tw-shadow-colored: 0 0 #0000; --tw-blur: ; --tw-brightness: ; --tw-contrast: ; --tw-grayscale: ; --tw-hue-rotate: ; --tw-invert: ; --tw-saturate: ; --tw-sepia: ; --tw-drop-shadow: ; --tw-backdrop-blur: ; --tw-backdrop-brightness: ; --tw-backdrop-contrast: ; --tw-backdrop-grayscale: ; --tw-backdrop-hue-rotate: ; --tw-backdrop-invert: ; --tw-backdrop-opacity: ; --tw-backdrop-saturate: ; --tw-backdrop-sepia: ; border-color: var(--border-color);&quot;&gt;&lt;/font&gt;color: red;&lt;/font&gt;" style="whiteSpace=wrap;html=1;fillStyle=auto;dashed=1;" vertex="1" parent="1">
          <mxGeometry x="-50" y="410" width="120" height="120" as="geometry" />
        </mxCell>
        <mxCell id="uR7NVUKfqcJEjUwaw1Go-14" value="&lt;font color=&quot;#999999&quot;&gt;font-size: 1.4rem;&lt;br style=&quot;border-color: var(--border-color);&quot;&gt;color: red;&lt;br&gt;width: 50%;&lt;br&gt;&lt;/font&gt;display: block;" style="whiteSpace=wrap;html=1;fillStyle=auto;dashed=1;fontFamily=Comic Sans MS;" vertex="1" parent="1">
          <mxGeometry x="-290" y="730" width="120" height="120" as="geometry" />
        </mxCell>
      </root>
    </mxGraphModel>
  </diagram>
</mxfile>
